<?xml version="1.0" encoding="UTF-8"?>
<svg xmlns="http://www.w3.org/2000/svg" xmlns:xlink="http://www.w3.org/1999/xlink" width="100pt" height="100pt" viewBox="0 0 100 100" version="1.1">
<g id="surface1">
<path style=" stroke:none;fill-rule:nonzero;fill:rgb(76.862745%,78.431373%,96.078431%);fill-opacity:1;" d="M 17.566406 55.695312 L 9.957031 67.359375 L 32.644531 90.046875 L 44.308594 82.4375 Z M 17.566406 55.695312 "/>
<path style=" stroke:none;fill-rule:nonzero;fill:rgb(76.862745%,78.431373%,96.078431%);fill-opacity:1;" d="M 23.417969 21.734375 L 3.507812 41.640625 L 19.410156 46.707031 L 45.453125 20.664062 Z M 23.417969 21.734375 "/>
<path style=" stroke:none;fill-rule:nonzero;fill:rgb(65.490196%,67.843137%,94.117647%);fill-opacity:1;" d="M 58.359375 96.492188 L 78.269531 76.582031 L 79.339844 54.546875 L 53.296875 80.589844 Z M 58.359375 96.492188 "/>
<path style=" stroke:none;fill-rule:nonzero;fill:rgb(100%,71.372549%,33.333333%);fill-opacity:1;" d="M 6.953125 70.136719 L 12.734375 75.921875 L 5.785156 82.871094 L 0.00390625 77.089844 Z M 6.953125 70.136719 "/>
<path style=" stroke:none;fill-rule:nonzero;fill:rgb(100%,59.607843%,6.666667%);fill-opacity:1;" d="M 22.914062 100 L 17.132812 94.21875 L 24.082031 87.269531 L 29.863281 93.050781 Z M 22.914062 100 "/>
<path style=" stroke:none;fill-rule:nonzero;fill:rgb(100%,71.372549%,33.333333%);fill-opacity:1;" d="M 5.117188 88.796875 L 15.363281 78.550781 L 21.144531 84.332031 L 10.898438 94.578125 Z M 5.117188 88.796875 "/>
<path style=" stroke:none;fill-rule:nonzero;fill:rgb(8.627451%,36.078431%,57.254902%);fill-opacity:1;" d="M 97.5625 4.820312 L 96.910156 3.09375 L 82.5625 17.441406 C 86.554688 21.433594 86.550781 27.90625 82.5625 31.898438 C 78.566406 35.890625 72.097656 35.890625 68.105469 31.898438 L 30.9375 69.066406 L 47.878906 86.007812 L 88.917969 44.96875 C 99.417969 34.46875 102.808594 18.710938 97.5625 4.820312 Z M 97.5625 4.820312 "/>
<path style=" stroke:none;fill-rule:nonzero;fill:rgb(58.823529%,78.431373%,93.72549%);fill-opacity:1;" d="M 82.5625 31.898438 C 86.550781 27.90625 86.554688 21.433594 82.5625 17.441406 L 68.105469 31.898438 C 72.097656 35.890625 78.566406 35.890625 82.5625 31.898438 Z M 82.5625 31.898438 "/>
<path style=" stroke:none;fill-rule:nonzero;fill:rgb(11.764706%,50.588235%,80.784314%);fill-opacity:1;" d="M 68.105469 31.898438 C 64.113281 27.90625 64.113281 21.433594 68.105469 17.441406 C 72.097656 13.449219 78.570312 13.449219 82.5625 17.441406 L 96.910156 3.09375 L 95.183594 2.441406 C 90.894531 0.820312 86.390625 0 81.792969 0 C 71.683594 0 62.183594 3.933594 55.035156 11.082031 L 13.996094 52.121094 L 30.9375 69.066406 Z M 68.105469 31.898438 "/>
<path style=" stroke:none;fill-rule:nonzero;fill:rgb(81.960784%,90.588235%,97.254902%);fill-opacity:1;" d="M 68.105469 17.441406 C 64.113281 21.433594 64.113281 27.90625 68.105469 31.898438 L 82.5625 17.441406 C 78.570312 13.449219 72.097656 13.449219 68.105469 17.441406 Z M 68.105469 17.441406 "/>
</g>
</svg>
